<svg xmlns="http://www.w3.org/2000/svg" width="512" height="512" viewBox="0 0 512 512">
  <defs>
    <!-- Dyb, mørk baggrund med en anelse varme i midten -->
    <radialGradient id="bg" cx="50%" cy="52%" r="80%">
      <stop offset="0%" stop-color="#1a1613"/>
      <stop offset="55%" stop-color="#0e0c0a"/>
      <stop offset="100%" stop-color="#060504"/>
    </radialGradient>
    <!-- Blødt varmt skær omkring flammen -->
    <radialGradient id="aura" cx="50%" cy="58%" r="40%">
      <stop offset="0%" stop-color="#e08a2e" stop-opacity="0.34"/>
      <stop offset="55%" stop-color="#e08a2e" stop-opacity="0.08"/>
      <stop offset="100%" stop-color="#e08a2e" stop-opacity="0"/>
    </radialGradient>
    <!-- Flammens krop: dyb ember i bund -> amber -> blød guld i toppen -->
    <linearGradient id="flame" x1="0" y1="0" x2="0" y2="1">
      <stop offset="0%" stop-color="#f7d488"/>
      <stop offset="38%" stop-color="#e4a23f"/>
      <stop offset="100%" stop-color="#a8481a"/>
    </linearGradient>
    <!-- Varm kerne -->
    <linearGradient id="core" x1="0" y1="0" x2="0" y2="1">
      <stop offset="0%" stop-color="#fff0c8"/>
      <stop offset="100%" stop-color="#f3ab44"/>
    </linearGradient>
    <filter id="soft" x="-80%" y="-80%" width="260%" height="260%">
      <feGaussianBlur stdDeviation="16"/>
    </filter>
    <filter id="coreSoft" x="-60%" y="-60%" width="220%" height="220%">
      <feGaussianBlur stdDeviation="6"/>
    </filter>
  </defs>

  <rect width="512" height="512" fill="url(#bg)"/>
  <rect width="512" height="512" fill="url(#aura)"/>

  <!-- Blød glød-halo bag flammen -->
  <path filter="url(#soft)" opacity="0.55" fill="#d77f2a" d="
    M256 168
    C 298 232 330 280 330 326
    C 330 368 298 398 256 398
    C 214 398 182 368 182 326
    C 182 280 214 232 256 168 Z"/>

  <!-- Flammens krop — bløde, organiske linjer -->
  <path fill="url(#flame)" d="
    M256 156
    C 268 196 286 224 300 256
    C 318 296 322 318 318 342
    C 311 380 284 400 256 400
    C 228 400 201 380 194 342
    C 190 318 194 296 212 256
    C 226 224 244 196 256 156 Z"/>

  <!-- Varm kerne, der gløder indefra -->
  <path fill="url(#core)" filter="url(#coreSoft)" opacity="0.9" d="
    M256 248
    C 264 272 276 290 282 312
    C 287 332 284 350 272 362
    C 264 370 248 370 240 362
    C 228 350 225 332 230 312
    C 236 290 248 272 256 248 Z"/>

  <!-- Lille blød lys-glød i toppen af kernen -->
  <ellipse cx="256" cy="300" rx="20" ry="34" fill="#fff3d6" opacity="0.5" filter="url(#coreSoft)"/>
</svg>
