<svg xmlns="http://www.w3.org/2000/svg" width="512" height="512" viewBox="0 0 512 512">
  <defs>
    <radialGradient id="bg" cx="50%" cy="46%" r="85%">
      <stop offset="0%" stop-color="#1b1714"/>
      <stop offset="55%" stop-color="#0e0c0a"/>
      <stop offset="100%" stop-color="#070605"/>
    </radialGradient>
    <radialGradient id="aura" cx="50%" cy="50%" r="46%">
      <stop offset="0%" stop-color="#e08a2e" stop-opacity="0.30"/>
      <stop offset="60%" stop-color="#e08a2e" stop-opacity="0.06"/>
      <stop offset="100%" stop-color="#e08a2e" stop-opacity="0"/>
    </radialGradient>
    <!-- Varm flamme-gradient over hele glyfen (top guld -> bund ember) -->
    <linearGradient id="flame" gradientUnits="userSpaceOnUse" x1="256" y1="150" x2="256" y2="368">
      <stop offset="0%" stop-color="#f7d488"/>
      <stop offset="42%" stop-color="#e6a541"/>
      <stop offset="100%" stop-color="#bd5a1d"/>
    </linearGradient>
    <filter id="glow" x="-60%" y="-60%" width="220%" height="220%">
      <feGaussianBlur stdDeviation="11"/>
    </filter>
  </defs>

  <rect width="512" height="512" fill="url(#bg)"/>
  <rect width="512" height="512" fill="url(#aura)"/>

  <!-- Et "E" tegnet som tre flydende bølge-streger (ingen hård bjælke).
       Venstre-enderne flugter og danner E'ets ryg; bløde runde ender. -->
  <g fill="none" stroke-linecap="round" stroke-linejoin="round">
    <!-- blød glød bag -->
    <g stroke="#d77f2a" stroke-width="44" opacity="0.5" filter="url(#glow)">
      <path d="M176 182 L 176 330"/>
      <path d="M176 182 C 240 169 300 195 356 182"/>
      <path d="M176 256 C 230 247 286 267 312 256"/>
      <path d="M176 330 C 240 343 300 317 356 330"/>
    </g>
    <!-- selve stregerne: lodret ryg + tre afdæmpede bølge-arme -->
    <g stroke="url(#flame)" stroke-width="42">
      <path d="M176 182 L 176 330"/>
      <path d="M176 182 C 240 169 300 195 356 182"/>
      <path d="M176 256 C 230 247 286 267 312 256"/>
      <path d="M176 330 C 240 343 300 317 356 330"/>
    </g>
  </g>
</svg>
